<svg width="155" height="26" viewBox="0 0 155 26" fill="none" xmlns="http://www.w3.org/2000/svg">
<g clip-path="url(#clip0_444_8970)">
<mask id="mask0_444_8970" style="mask-type:luminance" maskUnits="userSpaceOnUse" x="0" y="0" width="155" height="26">
<path d="M154.439 0.5H0V25.5H154.439V0.5Z" fill="white"/>
</mask>
<g mask="url(#mask0_444_8970)">
<path d="M13.9834 13.0042C11.2019 14.469 7.60414 15.3748 4.48158 14.7038C0.433723 13.8289 -0.989178 9.70832 0.696498 6.12731C2.85461 1.50637 8.52105 0.516773 13.1084 0.5H27.5108V3.7791C21.5089 3.42687 13.975 6.88768 13.975 13.0042C13.975 19.1207 6.4524 22.5731 0.450496 22.2209V25.5H14.8528C19.4402 25.4665 25.1066 24.502 27.2759 19.8727C28.9532 16.2917 27.5303 12.16 23.4909 11.2934C20.3655 10.6224 16.7677 11.531 13.989 12.993V13.0014L13.9834 13.0042Z" fill="#031948"/>
<path d="M43.8243 22.6377C41.7389 22.6377 40.0532 22.2295 38.7953 21.4356C37.5345 20.6417 36.6931 19.448 36.3101 17.9273L36.2598 17.7316L39.8184 16.9964L39.8687 17.1669C40.3272 18.7212 41.669 19.4816 43.9753 19.4816C45.046 19.4816 45.8818 19.325 46.4521 19.0147C46.9832 18.7212 47.2544 18.3103 47.2544 17.7484C47.2544 17.3961 47.1566 17.1194 46.9525 16.8902C46.7484 16.6609 46.4549 16.4652 46.1027 16.3422C45.7169 16.2109 45.2752 16.1046 44.7776 16.0152C44.28 15.9257 43.7377 15.8502 43.1842 15.7692C42.6279 15.6881 42.0548 15.607 41.4985 15.5064C40.9422 15.4086 40.3691 15.252 39.8548 15.0479C39.3404 14.8439 38.8568 14.5727 38.457 14.2624C38.0573 13.9521 37.705 13.502 37.459 12.9541C37.213 12.4062 37.09 11.7688 37.09 11.0392C37.09 9.58277 37.6938 8.39748 38.8903 7.50572C40.084 6.61396 41.6858 6.18066 43.6985 6.18066C45.7113 6.18066 47.2712 6.60558 48.476 7.43304C49.6781 8.25771 50.4636 9.4374 50.7907 10.8994L50.8326 11.0867L47.2432 11.8471L47.2013 11.6598C47.0224 10.8994 46.6282 10.3348 46.0076 9.94338C45.387 9.55202 44.5428 9.34515 43.5224 9.34515C42.6391 9.34515 41.9514 9.48492 41.4705 9.75329C41.0205 10.0077 40.808 10.3655 40.808 10.8323C40.808 11.1594 40.9059 11.4306 41.1015 11.6347C41.3056 11.8555 41.6019 12.0344 41.9598 12.1574C42.3371 12.2888 42.7844 12.395 43.2848 12.4761C43.7824 12.5572 44.3303 12.6466 44.8866 12.7221C45.4429 12.7948 46.016 12.8926 46.5891 12.9988C47.1621 13.1051 47.7184 13.2756 48.2412 13.4909C48.764 13.7033 49.2392 13.9829 49.6389 14.3099C50.0387 14.637 50.3909 15.0955 50.6369 15.6518C50.8829 16.2081 51.0059 16.8622 51.0059 17.589C51.0059 19.1601 50.3686 20.4013 49.0994 21.3014C47.8331 22.2016 46.0887 22.6265 43.8495 22.6265L43.8327 22.6349L43.8243 22.6377Z" fill="#031948"/>
<path d="M66.7146 8.45575C65.1771 6.95178 63.1559 6.19141 60.735 6.19141C58.3141 6.19141 56.3182 6.96016 54.7807 8.47252C53.2431 9.98488 52.4492 11.9976 52.4492 14.4353C52.4492 16.8729 53.2347 18.8605 54.7723 20.3645C56.3098 21.8685 58.3141 22.6288 60.735 22.6288C63.1559 22.6288 65.1435 21.8601 66.6978 20.3477C68.2521 18.8354 69.0376 16.831 69.0376 14.385C69.0376 11.9389 68.2521 9.95972 66.7146 8.45575ZM63.9526 17.8206C63.1587 18.6788 62.0797 19.1121 60.7378 19.1121C59.396 19.1121 58.3421 18.6788 57.5482 17.8206C56.7543 16.9624 56.3461 15.8079 56.3461 14.4185C56.3461 13.0292 56.7459 11.8746 57.5482 11.0164C58.3505 10.1582 59.4212 9.7249 60.7378 9.7249C62.0545 9.7249 63.1587 10.1582 63.9526 11.0164C64.7465 11.8746 65.1463 13.0208 65.1463 14.4185C65.1463 15.8163 64.7465 16.9624 63.9526 17.8206Z" fill="#031948"/>
<path d="M75.7688 22.2043V9.95451H79.3582V6.61111H75.7101V6.27565C75.6933 4.89468 76.5291 3.76531 77.9437 3.79047H80.5518V0.508572H77.706C74.3626 0.458254 71.925 2.91269 71.9725 6.22533V6.61111H69.6746V9.95451H71.9725V22.2043H75.766H75.7688Z" fill="#031948"/>
<path d="M97.2767 22.2127V13.9129C97.2767 12.6522 97.6541 11.6318 98.4061 10.8631C99.1581 10.0943 100.083 9.71691 101.154 9.71691C101.833 9.71691 102.462 9.78959 103.019 9.92937L103.231 9.98528L103.648 6.40427L103.469 6.37072C102.912 6.25611 102.373 6.2002 101.833 6.2002C99.829 6.2002 98.1545 7.05841 97.0503 8.6127V6.61672H93.4189V22.2127H97.2795H97.2767Z" fill="#031948"/>
<path d="M108.529 6.60791H104.693V22.1704H108.529V6.60791Z" fill="#031948"/>
<path d="M108.529 0.508301H104.693V3.7874H108.529V0.508301Z" fill="#031948"/>
<path d="M119.954 22.2039L126.588 6.60791H122.498L120.141 12.6266C119.454 14.3598 118.825 16.1601 118.26 17.9743C117.785 16.339 117.181 14.5555 116.46 12.6517L114.098 6.60791H109.862L116.488 22.2039H119.954Z" fill="#031948"/>
<path d="M142.041 14.1C142.024 12.979 141.845 11.9251 141.518 10.9746C141.191 10.027 140.694 9.17436 140.062 8.46431C139.433 7.75146 138.614 7.18118 137.641 6.77863C136.668 6.37887 135.572 6.1748 134.37 6.1748C131.974 6.1748 130.004 6.96035 128.514 8.49786C127.026 10.0354 126.274 12.0397 126.274 14.4438C126.274 16.848 126.984 18.8607 128.393 20.3647C129.8 21.8686 131.737 22.6206 134.135 22.6206C136.056 22.6206 137.716 22.1706 139.067 21.2704C140.417 20.3703 141.339 19.1039 141.789 17.5329L141.845 17.3456L138.46 16.4538L138.404 16.6243C138.11 17.4434 137.593 18.0892 136.867 18.5532C136.14 19.02 135.24 19.2577 134.183 19.2577C132.981 19.2577 132.016 18.9054 131.312 18.2177C130.607 17.5301 130.233 16.6551 130.076 15.5201H142.041V14.0888V14.0972V14.1ZM130.118 12.6939C130.305 11.7378 130.747 10.9439 131.435 10.3457C132.178 9.69991 133.112 9.38122 134.216 9.38122C135.321 9.38122 136.293 9.69153 136.981 10.3065C137.627 10.8796 138.027 11.6791 138.208 12.6939H130.121H130.118Z" fill="#031948"/>
<path d="M148.068 22.2127V13.9129C148.068 12.6522 148.446 11.6318 149.198 10.8631C149.95 10.0943 150.875 9.71691 151.946 9.71691C152.625 9.71691 153.254 9.78959 153.81 9.92937L154.023 9.98528L154.439 6.40427L154.26 6.37072C153.704 6.25611 153.164 6.2002 152.658 6.2002C151.571 6.2002 150.581 6.4462 149.723 6.91863C148.988 7.32677 148.359 7.89985 147.85 8.61829V6.62231H144.219V22.2099H148.071L148.068 22.2127Z" fill="#031948"/>
<path d="M86.3023 9.95443H91.0853V6.60824H86.3023V3.7876L79.3499 9.95443H82.4669V16.4875C82.4165 19.8085 84.8626 22.2518 88.2004 22.2042H91.0797V18.9251H88.5358C87.1129 18.9419 86.2855 17.8209 86.3023 16.44V9.95443Z" fill="#031948"/>
</g>
</g>
<defs>
<clipPath id="clip0_444_8970">
<rect width="155" height="26" fill="white"/>
</clipPath>
</defs>
</svg>
